<?xml version="1.0" standalone="no"?>
<!DOCTYPE svg PUBLIC "-//W3C//DTD SVG 20010904//EN"
 "http://www.w3.org/TR/2001/REC-SVG-20010904/DTD/svg10.dtd">
<svg version="1.0" xmlns="http://www.w3.org/2000/svg"
 width="631.000000pt" height="147.000000pt" viewBox="0 0 631.000000 147.000000"
 preserveAspectRatio="xMidYMid meet">

<g transform="translate(0.000000,147.000000) scale(0.100000,-0.100000)"
fill="#000000" stroke="none">
<path d="M4120 1461 c-51 -10 -56 -15 -79 -75 -80 -216 -109 -861 -49 -1133
13 -63 44 -120 79 -146 34 -24 141 -34 193 -17 75 24 118 84 84 118 -19 19
-36 14 -69 -23 -71 -78 -140 -19 -150 130 -3 31 6 59 38 121 90 175 126 368
127 679 1 205 0 223 -21 267 -31 68 -80 92 -153 79z m79 -217 c10 -30 12 -82
7 -219 -6 -193 -25 -312 -71 -440 l-25 -70 4 315 c3 185 9 338 16 370 21 100
44 115 69 44z"/>
<path d="M589 1346 c-65 -45 -144 -192 -180 -335 -30 -118 -25 -272 12 -351
51 -110 143 -180 237 -180 48 0 50 -5 28 -85 -39 -148 -154 -252 -292 -263
-83 -6 -159 17 -203 62 -30 31 -35 44 -39 94 -4 56 -3 60 37 106 51 59 71 96
71 135 0 39 -23 61 -64 61 -110 0 -182 -163 -142 -320 38 -149 135 -216 327
-227 222 -13 365 62 440 231 44 100 50 181 48 639 -1 383 -3 429 -18 436 -9 5
-63 12 -121 15 -101 7 -106 6 -141 -18z m96 -150 c18 -13 19 -28 16 -297 -2
-201 -6 -286 -14 -291 -22 -14 -64 -8 -91 13 -75 59 -107 244 -71 412 29 138
98 208 160 163z"/>
<path d="M2282 1337 c-6 -6 -14 -79 -19 -162 l-8 -150 -93 -6 c-69 -4 -97 -10
-110 -23 -16 -16 -15 -19 10 -41 15 -13 46 -26 70 -30 24 -4 59 -11 78 -16
l36 -9 -1 -307 c0 -296 1 -310 22 -367 44 -113 103 -166 187 -166 46 0 53 3
96 48 26 27 55 69 66 95 20 48 34 61 34 29 0 -10 12 -42 26 -71 29 -57 72 -91
116 -91 15 0 38 -4 52 -9 64 -25 131 27 186 143 36 75 38 77 44 50 25 -114
140 -169 228 -109 21 14 49 46 64 70 l26 45 28 -42 c62 -97 126 -132 238 -131
123 1 216 63 277 183 30 59 30 94 0 98 -16 2 -26 -8 -42 -41 -27 -55 -77 -113
-114 -133 -43 -22 -120 -18 -160 9 -144 95 -117 519 38 583 50 22 81 3 118
-71 30 -60 59 -80 76 -53 5 7 9 59 9 115 0 96 -2 103 -22 117 -53 33 -150 26
-238 -16 -64 -31 -148 -114 -181 -180 -38 -75 -50 -132 -54 -254 -4 -139 -46
-234 -101 -234 -68 0 -88 153 -48 367 6 29 3 35 -25 50 -30 17 -31 20 -31 88
-1 119 -26 185 -81 212 -105 51 -153 65 -209 61 -74 -5 -115 -35 -157 -115
-39 -72 -59 -148 -74 -278 -21 -185 -81 -369 -128 -395 -47 -25 -71 -8 -92 64
-11 35 -12 453 -3 564 6 60 11 75 28 84 12 7 72 12 143 12 120 1 123 1 123 23
0 40 -41 56 -160 62 -60 3 -112 9 -116 14 -4 4 -3 67 3 140 12 148 11 149 -57
166 -78 20 -88 21 -98 8z m722 -526 c41 -45 59 -150 31 -181 -9 -10 -19 -55
-25 -121 -21 -206 -43 -285 -96 -334 -38 -36 -89 -34 -108 3 -54 104 -44 413
18 547 34 74 70 105 121 105 29 0 47 -6 59 -19z"/>
<path d="M4542 963 c-110 -54 -218 -391 -192 -598 21 -169 132 -278 297 -292
79 -7 111 6 168 69 48 53 83 134 92 211 5 41 14 57 56 100 l50 51 -7 -124 c-7
-132 2 -212 27 -237 21 -21 105 -27 137 -11 14 8 26 24 28 38 10 79 58 264 82
318 16 34 30 62 32 62 2 0 3 -64 3 -143 1 -120 4 -148 20 -182 53 -107 202
-92 275 28 l17 28 17 -45 c21 -55 100 -131 152 -145 22 -6 68 -11 105 -11 149
0 267 116 300 295 12 66 1 109 -28 103 -11 -2 -23 -28 -37 -83 -30 -112 -64
-168 -122 -195 -116 -56 -234 19 -234 149 0 39 1 40 29 35 132 -27 287 201
251 369 -23 107 -90 162 -190 155 -139 -10 -225 -154 -260 -432 -17 -135 -68
-234 -116 -224 -38 7 -44 44 -42 233 1 99 -2 191 -6 205 -24 74 -95 93 -141
39 -32 -39 -74 -122 -106 -209 l-24 -65 -3 202 -2 203 -28 14 c-16 8 -46 16
-67 18 -39 3 -39 2 -47 -37 -4 -22 -7 -68 -7 -102 -1 -71 -35 -160 -79 -206
l-27 -28 -11 95 c-18 152 -28 179 -103 255 -102 105 -180 133 -259 94z m184
-130 c36 -39 55 -114 61 -245 l6 -118 -36 -15 c-46 -19 -139 -19 -175 -1 -43
22 -57 59 -56 145 0 91 37 184 91 231 42 37 76 38 109 3z m1234 -58 c16 -19 8
-120 -16 -188 -9 -26 -31 -64 -49 -83 -28 -29 -40 -35 -67 -32 -33 3 -33 3
-32 55 4 157 109 315 164 248z m-1418 -431 c24 -13 51 -15 117 -12 47 3 95 9
105 13 17 8 19 5 13 -25 -17 -81 -76 -130 -159 -130 -52 0 -85 21 -104 66 -14
33 -19 104 -9 104 4 0 20 -7 37 -16z"/>
<path d="M1046 892 c-6 -10 -26 -428 -28 -584 -1 -143 11 -174 75 -183 24 -4
58 -3 77 2 33 9 35 12 47 79 25 131 53 234 80 291 l27 58 6 -155 c7 -197 19
-226 107 -244 46 -10 109 10 145 47 l33 33 15 -31 c32 -63 159 -99 301 -84 85
9 137 34 163 78 34 58 5 103 -151 228 -51 41 -102 87 -113 103 -35 49 -19 146
27 165 63 25 77 25 117 -1 49 -33 81 -25 107 26 32 65 34 96 5 125 -21 21 -34
25 -87 25 -150 0 -304 -73 -348 -164 -52 -107 -11 -197 143 -319 109 -86 146
-124 146 -153 0 -32 -31 -54 -77 -54 -33 0 -53 10 -109 50 -48 36 -76 50 -92
47 -18 -4 -22 -1 -17 12 14 36 35 127 35 152 0 32 -20 51 -40 39 -8 -5 -20
-36 -27 -70 -16 -79 -55 -148 -90 -156 -54 -14 -69 52 -59 253 9 191 -12 253
-88 253 -26 0 -41 -7 -60 -31 -26 -31 -79 -136 -112 -224 l-19 -50 -3 202 -2
203 -28 14 c-36 18 -99 29 -106 18z"/>
</g>
</svg>
