<?xml version="1.0" standalone="no"?>
<!DOCTYPE svg PUBLIC "-//W3C//DTD SVG 20010904//EN"
 "http://www.w3.org/TR/2001/REC-SVG-20010904/DTD/svg10.dtd">
<svg version="1.0" xmlns="http://www.w3.org/2000/svg"
 width="1417.000000pt" height="407.000000pt" viewBox="0 0 1417.000000 407.000000"
 preserveAspectRatio="xMidYMid meet">

<g transform="translate(0.000000,407.000000) scale(0.100000,-0.100000)"
fill="#000000" stroke="none">
<path d="M779 4040 c-111 -31 -304 -170 -420 -302 -263 -298 -391 -688 -310
-937 31 -95 107 -208 177 -266 114 -93 254 -134 262 -78 2 12 -19 70 -47 130
-69 148 -84 213 -84 353 1 309 123 633 304 805 l63 60 9 -45 c11 -57 -1 -2008
-13 -2235 -7 -118 -18 -203 -35 -280 -49 -210 -50 -215 -33 -232 14 -14 21
-14 67 2 153 51 304 247 361 468 34 137 41 324 47 1390 l6 1038 -34 30 c-81
71 -243 121 -320 99z"/>
<path d="M4674 4042 c-58 -9 -70 -64 -80 -363 l-7 -196 -192 1 c-222 1 -224 0
-250 -87 -17 -56 -20 -144 -6 -166 7 -11 53 -16 203 -23 106 -5 199 -10 206
-13 10 -4 12 -95 10 -467 l-3 -463 -36 -92 c-46 -119 -119 -239 -191 -317
l-57 -61 -1 92 c-1 218 -65 308 -409 574 -89 68 -161 130 -161 138 0 8 22 49
50 90 94 144 140 276 121 348 -20 75 -76 107 -186 107 -67 0 -90 -5 -142 -28
-80 -37 -163 -122 -206 -213 -29 -61 -32 -77 -32 -158 0 -94 9 -124 66 -216
l23 -36 -73 -134 c-246 -451 -397 -669 -464 -669 -71 0 -82 97 -71 630 12 578
12 567 -14 618 -27 50 -80 91 -179 139 -58 28 -83 35 -133 34 -203 -1 -388
-231 -560 -696 -87 -238 -79 -234 -80 -40 -3 347 -16 653 -29 669 -17 20 -152
64 -222 72 -53 6 -58 5 -69 -17 -21 -38 -32 -454 -28 -1049 5 -603 6 -615 68
-675 30 -29 34 -30 143 -33 62 -1 118 1 125 6 7 5 22 56 33 113 75 397 203
787 341 1039 94 171 215 327 238 304 7 -7 7 -79 0 -214 -16 -331 -17 -874 -1
-950 32 -160 85 -256 158 -286 53 -23 150 -18 211 11 157 73 267 206 527 635
152 250 198 322 218 338 13 11 23 6 71 -37 106 -96 247 -256 273 -310 53 -108
40 -282 -25 -344 -78 -74 -166 -62 -328 47 -87 58 -111 59 -169 5 -80 -74
-117 -184 -79 -237 21 -30 115 -77 211 -104 68 -20 101 -23 248 -23 158 1 176
2 250 28 216 72 381 235 541 532 48 87 49 89 52 55 17 -205 100 -416 204 -517
71 -68 118 -87 229 -91 84 -4 101 -1 140 18 97 50 213 187 294 349 l37 74 32
-79 c17 -44 44 -102 60 -129 41 -70 137 -167 199 -201 50 -28 56 -29 192 -29
l140 0 74 39 c86 46 199 152 257 240 l38 58 12 -45 c31 -120 109 -216 216
-267 53 -25 76 -30 139 -30 115 0 167 20 245 93 37 34 80 85 96 114 17 29 34
53 38 53 5 0 29 -29 54 -64 55 -78 112 -128 186 -164 46 -22 71 -27 156 -30
168 -7 268 34 405 165 42 40 79 73 83 73 3 0 6 -35 6 -77 l0 -78 -181 -165
c-411 -374 -544 -547 -568 -738 -32 -258 123 -444 404 -483 221 -30 459 106
564 323 22 45 50 119 62 162 45 167 50 226 56 614 l5 374 82 102 c221 277 413
612 547 952 l54 136 132 -4 c72 -2 135 -7 139 -11 4 -4 -2 -60 -14 -125 -40
-211 -46 -274 -46 -492 0 -254 11 -319 79 -456 53 -108 123 -184 217 -235 60
-32 68 -34 163 -34 89 0 106 3 156 27 65 32 116 80 170 160 22 32 41 58 43 58
1 0 20 -25 41 -55 36 -53 97 -110 158 -149 55 -34 111 -47 203 -47 189 0 347
91 470 272 l48 70 24 -68 c44 -123 100 -191 202 -243 68 -36 217 -41 288 -10
63 27 141 108 179 184 15 31 30 56 34 56 3 0 9 -37 12 -83 11 -151 34 -169
227 -175 115 -4 127 -2 151 17 33 26 36 40 49 291 17 314 44 468 127 710 42
124 113 280 135 298 23 19 26 5 38 -203 21 -351 53 -642 86 -770 19 -76 66
-150 117 -183 36 -24 50 -27 128 -27 124 0 125 0 144 190 33 323 86 562 178
805 30 80 63 163 73 185 l19 40 3 -65 c1 -36 7 -213 12 -395 10 -325 21 -433
55 -552 39 -134 132 -255 238 -310 62 -32 199 -44 263 -23 139 46 244 223 274
464 16 126 2 166 -56 166 -40 0 -43 -5 -78 -130 -55 -195 -107 -280 -175 -282
-46 -1 -82 29 -119 103 -61 121 -65 165 -67 739 -1 331 -6 524 -12 540 -17 40
-52 66 -148 111 -71 34 -105 43 -160 47 -66 4 -73 3 -104 -24 -43 -36 -77
-112 -156 -349 -66 -198 -124 -408 -146 -532 -6 -40 -16 -73 -21 -73 -4 0 -8
8 -8 18 0 9 -5 67 -10 127 -5 61 -14 231 -20 379 -12 303 -15 315 -91 380 -86
73 -237 104 -296 60 -53 -39 -113 -172 -234 -524 l-64 -185 -5 315 c-4 222 -9
322 -18 337 -26 47 -281 96 -311 59 -10 -12 -16 -94 -22 -343 -21 -750 -26
-844 -48 -906 -50 -141 -146 -278 -207 -293 -54 -14 -112 27 -145 101 -39 88
-44 182 -41 777 l2 567 -22 21 c-35 33 -140 60 -229 60 -77 0 -79 -1 -94 -30
-8 -16 -15 -43 -15 -60 l0 -32 -71 65 c-108 101 -137 112 -294 112 -122 0
-133 -2 -180 -27 -115 -61 -181 -136 -263 -296 -55 -108 -84 -186 -112 -306
-18 -72 -20 -119 -20 -421 0 -335 -1 -341 -24 -390 -44 -95 -104 -145 -174
-145 -31 0 -108 71 -135 125 -25 50 -45 142 -57 258 -16 164 4 358 67 652 34
157 37 281 7 322 -12 15 -36 37 -55 48 -49 29 -167 25 -362 -14 -87 -17 -161
-31 -163 -31 -2 0 -4 37 -4 83 0 129 -37 182 -137 193 -130 16 -233 -53 -272
-181 -36 -116 -27 -173 45 -267 l44 -57 -26 -88 c-33 -113 -94 -272 -155 -398
-54 -114 -199 -360 -230 -390 l-21 -20 4 615 3 615 -60 29 c-50 24 -76 30
-155 34 -87 4 -97 3 -114 -16 -10 -12 -21 -41 -23 -64 l-5 -44 -63 62 c-37 37
-89 75 -128 94 -65 32 -67 32 -184 28 -105 -3 -124 -7 -172 -32 -183 -95 -335
-362 -386 -680 -22 -137 -29 -335 -16 -474 10 -114 10 -126 -10 -185 -37 -112
-123 -217 -178 -217 -40 0 -92 32 -118 72 -56 84 -57 99 -59 768 l-2 615 -66
34 c-56 29 -79 35 -151 39 -95 5 -135 -10 -135 -51 0 -12 -3 -32 -6 -45 -6
-21 -10 -19 -68 36 -33 32 -83 72 -111 88 -48 28 -54 29 -180 29 -119 0 -135
-2 -185 -26 -137 -65 -263 -232 -334 -443 -38 -113 -62 -247 -81 -439 -20
-205 -32 -257 -91 -374 -94 -189 -235 -292 -301 -220 -32 34 -62 100 -79 174
-14 58 -16 138 -16 523 1 444 15 837 30 852 4 4 114 11 245 14 l238 7 20 28
c24 35 45 125 36 161 -4 14 -14 29 -23 32 -9 3 -109 13 -223 21 -113 9 -225
18 -249 21 l-43 5 3 237 3 236 -32 22 c-49 33 -250 84 -299 76z m1566 -1205
c119 -63 179 -267 167 -562 -17 -395 -123 -649 -293 -705 -101 -34 -188 46
-243 220 -74 236 -44 696 58 905 70 142 200 201 311 142z m1683 9 c114 -47
175 -251 163 -551 -8 -230 -47 -418 -113 -549 -35 -69 -116 -152 -169 -172
-117 -45 -223 58 -269 262 -22 93 -31 375 -16 489 23 178 81 356 141 432 66
84 181 124 263 89z m2925 -1 c124 -52 172 -205 173 -542 0 -263 -47 -474 -135
-605 -59 -88 -109 -121 -192 -126 l-65 -4 -43 44 c-79 82 -112 183 -125 376
-9 132 1 400 19 492 26 140 66 233 128 302 65 73 158 97 240 63z m-2723 -1872
c-15 -421 -50 -591 -142 -694 -87 -97 -226 -107 -305 -23 -36 39 -48 74 -48
143 0 141 76 299 232 484 74 88 249 267 261 267 5 0 6 -80 2 -177z"/>
</g>
</svg>
